<svg width="56" height="56" viewBox="0 0 56 56" fill="none" xmlns="http://www.w3.org/2000/svg">
<path d="M38.5 14.1867C38.5 14.1867 22.54 18.1767 30.1933 26.9734C32.4566 29.5634 29.61 31.8967 29.61 31.8967C29.61 31.8967 35.3266 28.98 32.6666 25.2467C30.1933 21.8167 28.3266 20.1134 38.5 14.1867ZM28.07 16.9867C37.52 9.52002 32.6666 4.66669 32.6666 4.66669C34.6266 12.3667 25.76 14.7 22.5633 19.5067C20.37 22.7734 23.6366 26.2967 28 30.3334C26.3433 26.3667 20.4866 22.96 28.07 16.9867ZM21.8633 40.7634C14.6766 42.77 26.25 46.9 35.3733 43.0034C34.4866 42.6534 33.6233 42.2334 32.8066 41.7434C29.6333 42.4667 26.3666 42.6067 23.1466 42.1634C20.09 41.79 21.8633 40.7634 21.8633 40.7634ZM34.2766 36.8434C30.1933 37.73 25.97 37.94 21.8166 37.45C18.76 37.1467 20.7666 35.6534 20.7666 35.6534C12.8333 38.29 25.1533 41.2533 36.1666 38.0334C35.49 37.7767 34.8366 37.3334 34.2766 36.8434ZM42.2566 44.5434C42.2566 44.5434 43.5866 45.64 40.8333 46.48C35.5133 48.0667 18.83 48.5567 14.21 46.55C12.5533 45.8267 15.68 44.8234 16.66 44.6134C17.1966 44.4734 17.7333 44.4267 18.27 44.4267C16.4266 43.1667 6.29998 46.9934 13.16 48.0667C31.7566 51.1 47.0866 46.6667 42.2566 44.5434ZM35.8633 33.2034C36.54 32.76 37.2633 32.3867 38.01 32.06C38.01 32.06 34.4866 32.6667 30.9633 32.9934C27.23 33.3667 23.4733 33.4134 19.74 33.1334C14.2566 32.41 22.75 30.3334 22.75 30.3334C20.1833 30.3334 17.6633 30.94 15.3766 32.0834C10.5933 34.4167 27.2766 35.4667 35.8633 33.2034ZM37.9633 38.85C37.9166 38.9434 37.87 39.0134 37.7766 39.0834C49.4666 36.0267 45.1733 28.2567 39.5733 30.1934C39.27 30.3334 39.0133 30.52 38.85 30.7767C39.1766 30.66 39.5033 30.5667 39.8533 30.4967C42.6533 29.9367 46.6666 34.3 37.9633 38.85ZM38.2666 49.6067C31.2433 50.82 24.0566 50.9134 16.9866 49.9333C16.9866 49.9333 18.06 50.82 23.5433 51.17C31.9433 51.7067 44.8466 50.8667 45.15 46.9C45.22 46.9234 44.6133 48.4167 38.2666 49.6067Z" fill="#F8F8F8"/>
</svg>
