<svg width="56" height="56" viewBox="0 0 56 56" fill="none" xmlns="http://www.w3.org/2000/svg">
<path d="M29.75 26.25C29.75 24.8576 30.3031 23.5223 31.2877 22.5377C32.2723 21.5531 33.6076 21 35 21H40.25C40.7141 21 41.1592 21.1844 41.4874 21.5126C41.8156 21.8408 42 22.2859 42 22.75C42 23.2141 41.8156 23.6592 41.4874 23.9874C41.1592 24.3156 40.7141 24.5 40.25 24.5H35C34.5359 24.5 34.0907 24.6844 33.7626 25.0126C33.4344 25.3408 33.25 25.7859 33.25 26.25V28C33.25 28.4641 33.4344 28.9093 33.7626 29.2374C34.0907 29.5656 34.5359 29.75 35 29.75H36.75C38.1424 29.75 39.4777 30.3031 40.4623 31.2877C41.4469 32.2723 42 33.6076 42 35V36.75C42 38.1424 41.4469 39.4777 40.4623 40.4623C39.4777 41.4469 38.1424 42 36.75 42H31.5C31.0359 42 30.5907 41.8156 30.2626 41.4874C29.9344 41.1592 29.75 40.7141 29.75 40.25C29.75 39.7859 29.9344 39.3408 30.2626 39.0126C30.5907 38.6844 31.0359 38.5 31.5 38.5H36.75C37.2141 38.5 37.6593 38.3156 37.9874 37.9874C38.3156 37.6593 38.5 37.2141 38.5 36.75V35C38.5 34.5359 38.3156 34.0907 37.9874 33.7626C37.6593 33.4344 37.2141 33.25 36.75 33.25H35C33.6076 33.25 32.2723 32.6969 31.2877 31.7123C30.3031 30.7277 29.75 29.3924 29.75 28V26.25ZM28 22.75C28 22.2859 27.8156 21.8408 27.4874 21.5126C27.1592 21.1844 26.7141 21 26.25 21C25.7859 21 25.3408 21.1844 25.0126 21.5126C24.6844 21.8408 24.5 22.2859 24.5 22.75V36.75C24.5 37.2141 24.3156 37.6593 23.9874 37.9874C23.6592 38.3156 23.2141 38.5 22.75 38.5H19.25C18.7859 38.5 18.3408 38.6844 18.0126 39.0126C17.6844 39.3408 17.5 39.7859 17.5 40.25C17.5 40.7141 17.6844 41.1592 18.0126 41.4874C18.3408 41.8156 18.7859 42 19.25 42H22.75C24.1424 42 25.4777 41.4469 26.4623 40.4623C27.4469 39.4777 28 38.1424 28 36.75V22.75ZM7 15.75C7 13.4294 7.92187 11.2038 9.56282 9.56282C11.2038 7.92187 13.4294 7 15.75 7H40.25C42.5706 7 44.7962 7.92187 46.4372 9.56282C48.0781 11.2038 49 13.4294 49 15.75V40.25C49 42.5706 48.0781 44.7962 46.4372 46.4372C44.7962 48.0781 42.5706 49 40.25 49H15.75C13.4294 49 11.2038 48.0781 9.56282 46.4372C7.92187 44.7962 7 42.5706 7 40.25V15.75ZM15.75 10.5C14.3576 10.5 13.0223 11.0531 12.0377 12.0377C11.0531 13.0223 10.5 14.3576 10.5 15.75V40.25C10.5 41.6424 11.0531 42.9777 12.0377 43.9623C13.0223 44.9469 14.3576 45.5 15.75 45.5H40.25C41.6424 45.5 42.9777 44.9469 43.9623 43.9623C44.9469 42.9777 45.5 41.6424 45.5 40.25V15.75C45.5 14.3576 44.9469 13.0223 43.9623 12.0377C42.9777 11.0531 41.6424 10.5 40.25 10.5H15.75Z" fill="#F8F8F8"/>
</svg>
