<svg width="41" height="41" viewBox="0 0 41 41" fill="none" xmlns="http://www.w3.org/2000/svg">
<circle cx="20.5" cy="20.5" r="19.5" fill="white" stroke="#0D7726" stroke-width="2"/>
<g clip-path="url(#clip0_135_22)">
<path d="M16.7244 16.1472H13.5124C13.3698 16.1472 13.2543 16.2628 13.2543 16.4053V26.7241C13.2543 26.8667 13.3698 26.9822 13.5124 26.9822H16.7244C16.8669 26.9822 16.9825 26.8667 16.9825 26.7241V16.4053C16.9825 16.2628 16.8669 16.1472 16.7244 16.1472Z" fill="#0D7726"/>
<path d="M15.1195 11.0176C13.9508 11.0176 13 11.9674 13 13.1348C13 14.3027 13.9508 15.2529 15.1195 15.2529C16.2873 15.2529 17.2374 14.3027 17.2374 13.1348C17.2374 11.9674 16.2873 11.0176 15.1195 11.0176Z" fill="#0D7726"/>
<path d="M24.8944 15.8909C23.6043 15.8909 22.6507 16.4454 22.0722 17.0756V16.4054C22.0722 16.2629 21.9567 16.1473 21.8142 16.1473H18.7381C18.5956 16.1473 18.48 16.2629 18.48 16.4054V26.7243C18.48 26.8668 18.5956 26.9823 18.7381 26.9823H21.9431C22.0857 26.9823 22.2012 26.8668 22.2012 26.7243V21.6188C22.2012 19.8984 22.6685 19.2282 23.8678 19.2282C25.1739 19.2282 25.2777 20.3026 25.2777 21.7073V26.7243C25.2777 26.8669 25.3932 26.9824 25.5357 26.9824H28.7419C28.8845 26.9824 29 26.8669 29 26.7243V21.0642C29 18.506 28.5122 15.8909 24.8944 15.8909Z" fill="#0D7726"/>
</g>
<defs>
<clipPath id="clip0_135_22">
<rect width="16" height="16" fill="white" transform="translate(13 11)"/>
</clipPath>
</defs>
</svg>
