<svg width="221" height="62" viewBox="0 0 221 62" fill="none" xmlns="http://www.w3.org/2000/svg">
<g clip-path="url(#clip0_386_7)">
<path d="M23.6871 14.1481C23.0555 12.3061 22.5028 10.5425 21.8317 8.81812C21.8317 8.54378 21.2395 8.34783 20.8842 8.19106C20.2377 7.94666 19.6608 7.54975 19.2033 7.03459C18.7458 6.51943 18.4214 5.9015 18.2582 5.23412C18.095 4.56674 18.0978 3.86995 18.2665 3.2039C18.4351 2.53784 18.7644 1.92252 19.2261 1.41104C19.9137 0.62941 20.8733 0.134528 21.9129 0.0255163C22.9524 -0.0834953 23.9951 0.201413 24.832 0.823174C25.6974 1.46538 26.282 2.41237 26.4656 3.46938C26.6492 4.52638 26.4178 5.61304 25.819 6.50585C25.5919 6.77426 25.4485 7.10256 25.4064 7.45059C25.3644 7.79862 25.4254 8.15128 25.5821 8.4654C26.2532 10.229 26.8454 11.9926 27.4771 13.7562H32.3329C33.083 11.6791 33.8726 9.56274 34.5437 7.48563C34.5437 7.25048 34.5437 6.85857 34.1884 6.58424C33.7209 5.84468 33.4863 4.98353 33.5144 4.11089C33.5425 3.23824 33.8322 2.39375 34.3463 1.68537C34.7984 0.975398 35.4683 0.42839 36.2573 0.124982C37.0462 -0.178427 37.9125 -0.222182 38.7284 0.000165612C39.6092 0.223515 40.3917 0.728126 40.9552 1.43629C41.5188 2.14445 41.8322 3.01689 41.8472 3.91926C41.9272 4.86437 41.6592 5.8062 41.093 6.57011C40.5267 7.33402 39.7006 7.86816 38.7679 8.07349C38.4885 8.12212 38.2302 8.25261 38.0262 8.44817C37.8222 8.64372 37.6818 8.8954 37.623 9.17084C37.1098 10.7385 36.5571 12.2669 36.0044 13.8737L39.3995 14.54C43.5986 15.5139 47.493 17.4952 50.7416 20.3102C53.9902 23.1252 56.4939 26.688 58.0333 30.6866C60.3317 35.9226 61.0715 41.7025 60.1652 47.3428C59.6019 50.7908 57.6855 53.8769 54.8356 55.9256C51.7436 58.1547 48.2229 59.7288 44.4922 60.5501C37.8309 61.9833 30.9893 62.4061 24.2004 61.8042C19.9655 61.6586 15.7867 60.7971 11.8436 59.2568C9.89707 58.4574 8.03292 57.473 6.27717 56.3175C4.43306 55.1283 2.90148 53.5194 1.80973 51.6245C0.717972 49.7295 0.0975781 47.6033 0.000107422 45.4224C-0.57143 37.8496 1.52151 30.3145 5.92186 24.1026C9.8272 18.8908 15.6414 15.4136 22.108 14.4224L23.6871 14.1481ZM30.6353 49.4199L36.5176 48.9888C40.0175 48.7836 43.4718 48.0977 46.782 46.9509C48.908 46.2477 50.741 44.8682 51.9972 43.026C53.2533 41.1839 53.8624 38.9819 53.7302 36.7612C53.5821 32.7854 52.063 28.9806 49.427 25.9837C46.1909 22.5441 41.8776 20.2927 37.1887 19.5956C32.3468 18.5803 27.3447 18.5803 22.5028 19.5956C19.8448 20.1206 17.3122 21.1449 15.0414 22.6133C12.5503 24.2256 10.5167 26.4444 9.1345 29.0583C7.75232 31.6722 7.06763 34.5939 7.14569 37.545C7.09284 38.898 7.36618 40.244 7.94297 41.471C8.51977 42.698 9.38335 43.7705 10.4619 44.5994C12.019 45.9012 13.835 46.8627 15.7915 47.4212C20.6515 48.8242 25.6927 49.5108 30.7538 49.4591L30.6353 49.4199Z" fill="black"/>
<path d="M199.366 33.4301V22.8486C199.366 21.9472 199.721 21.5161 200.432 21.4769C201.143 21.4377 201.656 21.908 201.656 22.8486C201.656 28.492 201.656 34.1355 201.656 39.7398C201.575 41.8231 200.726 43.8044 199.271 45.3072C197.815 46.8101 195.854 47.7297 193.76 47.8915C191.839 48.0819 189.909 47.6254 188.281 46.5954C186.652 45.5654 185.42 44.0217 184.782 42.2125C184.144 40.4034 184.138 38.4339 184.764 36.6206C185.39 34.8074 186.612 33.2558 188.233 32.2152C189.657 31.2093 191.361 30.6688 193.109 30.6688C194.856 30.6688 196.56 31.2093 197.984 32.2152C198.34 32.6071 198.734 32.9598 199.366 33.4301ZM199.366 39.3871C199.382 38.1282 199.02 36.8931 198.327 35.8387C197.634 34.7844 196.64 33.9585 195.473 33.4659C194.306 32.9733 193.018 32.8363 191.772 33.0724C190.526 33.3084 189.379 33.9069 188.477 34.7916C187.575 35.6763 186.958 36.8073 186.704 38.041C186.451 39.2747 186.573 40.5552 187.055 41.7199C187.536 42.8846 188.356 43.8808 189.409 44.582C190.463 45.2831 191.702 45.6576 192.971 45.6577C194.653 45.6578 196.268 44.9996 197.465 43.8259C198.662 42.6521 199.345 41.0573 199.366 39.3871Z" fill="black"/>
<path d="M109.316 33.4301C109.578 33.1788 109.854 32.9432 110.145 32.7247C111.593 31.5235 113.402 30.8334 115.288 30.7625C117.175 30.6916 119.031 31.2439 120.567 32.3328C121.785 33.1733 122.764 34.3107 123.411 35.6357C124.059 36.9606 124.351 38.4285 124.262 39.8983C124.172 41.3681 123.703 42.7902 122.9 44.0281C122.097 45.2659 120.986 46.2777 119.675 46.9663C118.364 47.6549 116.896 47.9971 115.414 47.96C113.931 47.9228 112.483 47.5076 111.208 46.7542C109.934 46.0009 108.876 44.9347 108.137 43.6582C107.397 42.3817 107.001 40.9379 106.986 39.4655C106.986 34.018 106.986 28.5313 106.986 23.0837C106.967 22.8359 106.967 22.5869 106.986 22.3391C107.024 22.0968 107.149 21.8763 107.338 21.7179C107.526 21.5596 107.766 21.474 108.013 21.4769C108.258 21.4409 108.507 21.4974 108.712 21.6353C108.916 21.7733 109.062 21.9825 109.118 22.2215C109.156 22.5994 109.156 22.9802 109.118 23.3581C109.118 26.3366 109.118 29.2759 109.118 32.2544C109.276 32.5679 109.276 32.9206 109.316 33.4301ZM115.593 32.999C114.32 32.9916 113.073 33.3616 112.013 34.0617C110.953 34.7617 110.127 35.76 109.642 36.9286C109.157 38.0972 109.034 39.3829 109.29 40.6212C109.545 41.8595 110.167 42.9939 111.076 43.8792C111.984 44.7645 113.139 45.3604 114.391 45.5906C115.642 45.8208 116.935 45.6748 118.103 45.1712C119.271 44.6677 120.261 43.8296 120.946 42.7642C121.631 41.6989 121.98 40.4548 121.949 39.1912C121.928 37.5349 121.248 35.9542 120.057 34.794C118.866 33.6338 117.261 32.9885 115.593 32.999Z" fill="black"/>
<path d="M207.38 41.8167C207.811 42.8153 208.495 43.6865 209.365 44.3458C210.235 45.0051 211.262 45.4302 212.346 45.58C213.43 45.7298 214.534 45.5992 215.553 45.2008C216.571 44.8024 217.468 44.1497 218.158 43.306C218.355 43.0708 218.513 42.7965 218.71 42.5222C218.787 42.3875 218.891 42.2699 219.016 42.1766C219.141 42.0833 219.283 42.0162 219.434 41.9795C219.586 41.9428 219.744 41.9372 219.897 41.9632C220.051 41.9891 220.198 42.0459 220.329 42.1303C220.882 42.483 221 43.0708 220.566 43.7763C220.021 44.7698 219.266 45.6344 218.353 46.3109C217.44 46.9874 216.39 47.4597 215.276 47.6954C214.15 47.973 212.979 48.0228 211.834 47.8419C210.688 47.6609 209.591 47.253 208.607 46.6423C207.624 46.0316 206.774 45.2307 206.109 44.2872C205.443 43.3437 204.976 42.2769 204.735 41.1505C204.271 39.1878 204.524 37.1251 205.45 35.3306C206.375 33.536 207.913 32.1263 209.788 31.3528C211.636 30.5055 213.731 30.3524 215.684 30.9218C217.636 31.4911 219.315 32.7443 220.408 34.4488C221.355 35.9381 221.198 36.4868 219.579 37.1138L208.091 41.5424L207.38 41.8167ZM218.079 35.2718C217.162 34.1266 215.869 33.338 214.425 33.0443C212.981 32.7505 211.48 32.9702 210.183 33.665C209.099 34.1703 208.205 35.0045 207.631 36.0471C207.056 37.0897 206.83 38.2868 206.985 39.4653L218.079 35.2718Z" fill="#FFC600"/>
<path d="M95.4194 47.9307C93.7146 47.9381 92.0455 47.445 90.6222 46.5134C89.1989 45.5818 88.0848 44.2532 87.42 42.6947C86.7552 41.1363 86.5694 39.4175 86.8859 37.7544C87.2024 36.0914 88.0072 34.5584 89.199 33.3482C90.3907 32.1379 91.9164 31.3045 93.584 30.9527C95.2516 30.6008 96.9868 30.7463 98.5713 31.3707C100.156 31.9952 101.519 33.0707 102.49 34.4622C103.46 35.8537 103.995 37.4989 104.026 39.1911C104.057 40.3309 103.858 41.4653 103.439 42.527C103.021 43.5887 102.391 44.556 101.588 45.3713C100.785 46.1866 99.8254 46.8334 98.7656 47.273C97.7059 47.7127 96.5679 47.9364 95.4194 47.9307ZM101.736 39.3871C101.736 37.7167 101.073 36.1136 99.8908 34.9252C98.7084 33.7367 97.1019 33.0588 95.4194 33.0381C94.1512 33.0226 92.9071 33.3817 91.845 34.0698C90.7829 34.7579 89.9509 35.744 89.4547 36.9026C88.9585 38.0613 88.8206 39.3402 89.0584 40.5769C89.2961 41.8136 89.8989 42.9522 90.7901 43.848C91.6813 44.7437 92.8207 45.3562 94.0634 45.6076C95.3061 45.859 96.5961 45.738 97.7693 45.2598C98.9425 44.7817 99.9461 43.968 100.652 42.9223C101.359 41.8766 101.736 40.6461 101.736 39.3871Z" fill="black"/>
<path d="M126.884 39.1911C126.9 37.4827 127.426 35.8174 128.397 34.4067C129.368 32.9961 130.74 31.9036 132.337 31.2679C133.935 30.6322 135.686 30.4821 137.37 30.8364C139.054 31.1908 140.593 32.0338 141.793 33.2583C142.994 34.4829 143.8 36.0338 144.111 37.7143C144.422 39.3947 144.223 41.1289 143.539 42.6968C142.855 44.2647 141.717 45.5955 140.27 46.5204C138.823 47.4453 137.132 47.9225 135.411 47.8915C134.276 47.8762 133.154 47.639 132.111 47.1934C131.068 46.7478 130.124 46.1027 129.332 45.2948C128.54 44.4868 127.916 43.532 127.496 42.4847C127.076 41.4374 126.868 40.3183 126.884 39.1911ZM141.925 39.3871C141.933 38.1331 141.566 36.9049 140.872 35.8575C140.177 34.8101 139.185 33.9903 138.022 33.5015C136.859 33.0128 135.576 32.877 134.335 33.1112C133.094 33.3454 131.951 33.9393 131.049 34.8178C130.148 35.6963 129.529 36.8201 129.27 38.0475C129.011 39.2749 129.124 40.5509 129.595 41.7145C130.066 42.8782 130.873 43.8774 131.915 44.5861C132.957 45.2948 134.187 45.6813 135.45 45.6968C136.305 45.7282 137.158 45.5901 137.958 45.2905C138.759 44.9909 139.491 44.5358 140.112 43.952C140.734 43.3681 141.231 42.6671 141.576 41.8901C141.922 41.113 142.107 40.2754 142.122 39.4263L141.925 39.3871Z" fill="black"/>
<path d="M173.35 30.8041C175.061 30.8355 176.724 31.3705 178.129 32.3411C179.533 33.3118 180.616 34.6745 181.24 36.2566C181.864 37.8387 182.001 39.5691 181.634 41.2285C181.266 42.8879 180.411 44.4016 179.176 45.578C177.941 46.7544 176.382 47.5405 174.697 47.8368C173.012 48.133 171.276 47.926 169.709 47.242C168.142 46.558 166.815 45.4278 165.896 43.9946C164.977 42.5613 164.507 40.8895 164.546 39.1909C164.608 36.9247 165.567 34.774 167.214 33.2043C168.862 31.6346 171.066 30.7723 173.35 30.8041ZM179.587 39.3869C179.587 38.1329 179.213 36.9069 178.512 35.8637C177.811 34.8205 176.814 34.0067 175.648 33.5251C174.482 33.0434 173.198 32.9154 171.958 33.1572C170.719 33.399 169.579 33.9998 168.683 34.8838C167.787 35.7678 167.175 36.8954 166.924 38.1244C166.673 39.3534 166.794 40.6287 167.272 41.7895C167.75 42.9502 168.563 43.9445 169.61 44.6468C170.656 45.3491 171.889 45.7281 173.152 45.7358C174.852 45.7358 176.483 45.0682 177.689 43.8786C178.894 42.6891 179.577 41.0743 179.587 39.3869Z" fill="black"/>
<path d="M146.978 39.191C146.904 37.5669 147.314 35.9572 148.157 34.5631C148.999 33.169 150.237 32.0524 151.716 31.3529C153.17 30.5948 154.816 30.2762 156.451 30.4364C158.086 30.5966 159.637 31.2285 160.914 32.2543C161.151 32.2543 161.467 32.6854 161.506 32.9205C161.661 33.3244 161.661 33.7707 161.506 34.1746C161.439 34.2781 161.351 34.3667 161.248 34.4351C161.144 34.5034 161.028 34.5501 160.906 34.5721C160.784 34.5942 160.659 34.5911 160.538 34.5632C160.417 34.5353 160.303 34.483 160.203 34.4098L159.295 33.7435C157.989 32.8655 156.401 32.4982 154.838 32.7121C153.274 32.926 151.846 33.7061 150.827 34.9023C149.808 36.0985 149.271 37.6264 149.318 39.1922C149.366 40.758 149.995 42.2511 151.084 43.3845C152.163 44.5058 153.617 45.1966 155.174 45.3266C156.73 45.4566 158.28 45.0167 159.532 44.0899L159.769 43.894C160.519 43.3845 161.19 43.3845 161.625 43.894C162.059 44.4034 161.901 45.1089 161.151 45.6967C159.888 46.7316 158.347 47.3759 156.719 47.5501C155.091 47.7243 153.448 47.4205 151.992 46.6765C150.509 46.0541 149.243 45.0127 148.352 43.6818C147.46 42.351 146.983 40.7893 146.978 39.191Z" fill="black"/>
<path d="M74.2195 41.8168C74.2195 40.3668 74.2195 38.9167 74.2195 37.4666C74.2307 35.8124 74.8579 34.2207 75.9803 32.998C77.1027 31.7752 78.641 31.0078 80.2992 30.8434C81.1271 30.7846 81.9583 30.7846 82.7863 30.8434C83.5759 30.8434 84.0496 31.392 83.9706 32.0191C83.9609 32.1669 83.921 32.3113 83.8536 32.4435C83.7861 32.5756 83.6923 32.6928 83.578 32.7881C83.4636 32.8833 83.331 32.9545 83.1882 32.9975C83.0453 33.0404 82.8952 33.0542 82.7468 33.0381H80.9703C79.7835 33.0484 78.6489 33.5237 77.8134 34.3604C76.9779 35.1972 76.5092 36.3276 76.5092 37.5058C76.5092 40.2884 76.5092 43.0709 76.5092 45.8535V46.363C76.5092 47.4211 76.1144 47.9306 75.4038 47.9306C74.6932 47.9306 74.2195 47.4603 74.2195 46.3238V41.8168Z" fill="black"/>
<path d="M24.4768 33.7046C24.4768 34.7235 24.4768 35.7425 24.4768 36.7222C24.4768 37.4602 24.1815 38.168 23.6558 38.6898C23.1302 39.2116 22.4172 39.5048 21.6738 39.5048C20.9304 39.5048 20.2175 39.2116 19.6918 38.6898C19.1662 38.168 18.8708 37.4602 18.8708 36.7222C18.8708 34.7235 18.8708 32.8032 18.8708 30.6869C18.8708 29.9489 19.1662 29.2411 19.6918 28.7193C20.2175 28.1975 20.9304 27.9043 21.6738 27.9043C22.4172 27.9043 23.1302 28.1975 23.6558 28.7193C24.1815 29.2411 24.4768 29.9489 24.4768 30.6869C24.5163 31.7058 24.4768 32.6856 24.4768 33.7046Z" fill="black"/>
<path d="M41.6498 33.7044V36.9181C41.6498 37.656 41.3545 38.3638 40.8288 38.8856C40.3031 39.4075 39.5902 39.7006 38.8468 39.7006C38.1034 39.7006 37.3905 39.4075 36.8648 38.8856C36.3392 38.3638 36.0438 37.656 36.0438 36.9181C36.0438 34.7756 36.0438 32.6201 36.0438 30.4516C36.0332 30.0763 36.0991 29.7027 36.2376 29.3534C36.3762 29.0041 36.5845 28.6862 36.8501 28.4189C37.1156 28.1516 37.4329 27.9405 37.7829 27.7981C38.1328 27.6558 38.5082 27.5852 38.8863 27.5906C39.6438 27.6213 40.3586 27.9469 40.8758 28.4971C41.3931 29.0473 41.6712 29.7777 41.6498 30.5299V33.7044Z" fill="black"/>
</g>
<defs>
<clipPath id="clip0_386_7">
<rect width="221" height="62" fill="white"/>
</clipPath>
</defs>
</svg>
