<svg width="220" height="65" viewBox="0 0 220 65" fill="none" xmlns="http://www.w3.org/2000/svg">
<path d="M26.5001 26.0401C24.4866 23.9878 24.4866 20.6602 26.5001 18.6079L34.8511 10.0956C36.8649 8.04329 40.1293 8.04329 42.1431 10.0956C44.1565 12.1482 44.1565 15.4754 42.1431 17.5281L33.7917 26.0401C31.7782 28.0923 28.5135 28.0923 26.5001 26.0401Z" fill="#1E5188"/>
<path d="M18.1056 17.4837C16.0921 15.4315 16.0921 12.1038 18.1056 10.0516L26.4566 1.53919C28.4704 -0.513065 31.7348 -0.513065 33.7486 1.53919C35.762 3.59182 35.762 6.91908 33.7486 8.97171L25.3972 17.4837C23.3837 19.536 20.119 19.536 18.1056 17.4837Z" fill="#1E5188"/>
<path d="M26.416 59.8734C24.4025 57.8212 24.4025 54.4935 26.416 52.4413L34.767 43.9289C36.7808 41.8766 40.0452 41.8766 42.059 43.9289C44.0724 45.9815 44.0724 49.3088 42.059 51.3614L33.7076 59.8734C31.6941 61.9257 28.4294 61.9257 26.416 59.8734Z" fill="#1E5188"/>
<path d="M18.0648 51.3614C16.0514 49.3091 16.0514 45.9815 18.0648 43.9292L26.4159 35.4169C28.4297 33.3646 31.694 33.3646 33.7079 35.4169C35.7213 37.4695 35.7213 40.7967 33.7079 42.8494L25.3564 51.3614C23.343 53.4136 20.0783 53.4136 18.0648 51.3614Z" fill="#1E5188"/>
<path d="M1.51009 27.0551C3.52354 25.0029 6.78825 25.0029 8.8017 27.0551L17.1531 35.5672C19.1666 37.6198 19.1666 40.947 17.1531 42.9997C15.1393 45.0519 11.875 45.0519 9.86114 42.9997L1.51009 34.4873C-0.503363 32.435 -0.503363 29.1074 1.51009 27.0551Z" fill="#1E5188"/>
<path d="M9.8178 18.4989C11.8313 16.4467 15.096 16.4467 17.1094 18.4989L25.4608 27.0109C27.4743 29.0636 27.4743 32.3908 25.4608 34.4434C23.447 36.4957 20.1827 36.4957 18.1689 34.4434L9.8178 25.9311C7.80435 23.8788 7.80435 20.5512 9.8178 18.4989Z" fill="#1E5188"/>
<path d="M58.6977 34.4018C56.6842 36.4541 53.4195 36.4541 51.4061 34.4018L43.0547 25.8898C41.0412 23.8372 41.0412 20.5099 43.0547 18.4573C45.0685 16.405 48.3328 16.405 50.3466 18.4573L58.6977 26.9697C60.7111 29.0219 60.7111 32.3495 58.6977 34.4018Z" fill="#1E5188"/>
<path d="M50.3466 42.9138C48.3331 44.9661 45.0684 44.9661 43.0549 42.9138L34.7035 34.4018C32.6901 32.3492 32.6901 29.0219 34.7035 26.9693C36.7173 24.917 39.9817 24.917 41.9955 26.9693L50.3466 35.4817C52.36 37.5339 52.36 40.8616 50.3466 42.9138Z" fill="#1E5188"/>
<path d="M102.562 10.9977L97.6352 32.004H91.4554L88.1614 17.9502L84.8383 32.004H78.6585L73.7321 10.9977H79.1541L81.8067 26.2101L85.4213 10.9977H90.8724L94.487 26.2101L97.1688 10.9977H102.562Z" fill="#1E5188"/>
<path d="M120.628 23.2687C120.628 23.6846 120.58 24.1402 120.482 24.6354H109.201C109.26 25.8833 109.571 26.7846 110.134 27.3392C110.698 27.874 111.417 28.1414 112.291 28.1414C113.03 28.1414 113.642 27.9532 114.128 27.5769C114.614 27.2005 114.934 26.7152 115.09 26.121H120.366C120.152 27.2897 119.686 28.3395 118.967 29.2705C118.248 30.1816 117.334 30.9046 116.227 31.4394C115.119 31.9544 113.885 32.2119 112.524 32.2119C110.931 32.2119 109.512 31.8752 108.269 31.2017C107.044 30.5085 106.082 29.5181 105.383 28.2306C104.683 26.943 104.333 25.4376 104.333 23.7143C104.333 21.9712 104.673 20.4658 105.354 19.1981C106.053 17.9106 107.025 16.9301 108.269 16.2567C109.512 15.5634 110.931 15.2167 112.524 15.2167C114.137 15.2167 115.556 15.5535 116.78 16.227C118.005 16.9004 118.947 17.8512 119.608 19.0793C120.288 20.2876 120.628 21.684 120.628 23.2687ZM115.585 22.4962C115.605 21.4067 115.313 20.5946 114.711 20.0598C114.128 19.5052 113.399 19.2279 112.524 19.2279C111.611 19.2279 110.853 19.5052 110.251 20.0598C109.648 20.6144 109.308 21.4265 109.231 22.4962H115.585Z" fill="#1E5188"/>
<path d="M133.371 15.2167C134.712 15.2167 135.907 15.5634 136.956 16.2567C138.025 16.9301 138.861 17.9106 139.463 19.1981C140.085 20.4658 140.396 21.9712 140.396 23.7143C140.396 25.4376 140.085 26.943 139.463 28.2306C138.861 29.5181 138.025 30.5085 136.956 31.2017C135.907 31.8752 134.712 32.2119 133.371 32.2119C132.127 32.2119 131.058 31.9247 130.164 31.3503C129.27 30.7759 128.619 29.9935 128.211 29.0031V32.004H123.227V10.0172H128.211V18.4256C128.619 17.4352 129.27 16.6528 130.164 16.0784C131.058 15.504 132.127 15.2167 133.371 15.2167ZM131.768 19.6735C130.718 19.6735 129.853 20.04 129.173 20.7729C128.513 21.486 128.182 22.4664 128.182 23.7143C128.182 24.9424 128.513 25.9229 129.173 26.6558C129.853 27.3887 130.718 27.7552 131.768 27.7552C132.836 27.7552 133.691 27.3986 134.333 26.6855C134.994 25.9724 135.324 24.9821 135.324 23.7143C135.324 22.4466 134.994 21.4562 134.333 20.7432C133.691 20.0301 132.836 19.6735 131.768 19.6735Z" fill="#1E5188"/>
<path d="M153.127 15.2167C154.468 15.2167 155.663 15.5634 156.712 16.2567C157.781 16.9301 158.617 17.9106 159.219 19.1981C159.841 20.4658 160.152 21.9712 160.152 23.7143C160.152 25.4376 159.841 26.943 159.219 28.2306C158.617 29.5181 157.781 30.5085 156.712 31.2017C155.663 31.8752 154.468 32.2119 153.127 32.2119C151.883 32.2119 150.814 31.9247 149.92 31.3503C149.026 30.7759 148.375 29.9935 147.967 29.0031V32.004H142.983V10.0172H147.967V18.4256C148.375 17.4352 149.026 16.6528 149.92 16.0784C150.814 15.504 151.883 15.2167 153.127 15.2167ZM151.524 19.6735C150.474 19.6735 149.609 20.04 148.929 20.7729C148.268 21.486 147.938 22.4664 147.938 23.7143C147.938 24.9424 148.268 25.9229 148.929 26.6558C149.609 27.3887 150.474 27.7552 151.524 27.7552C152.592 27.7552 153.447 27.3986 154.089 26.6855C154.75 25.9724 155.08 24.9821 155.08 23.7143C155.08 22.4466 154.75 21.4562 154.089 20.7432C153.447 20.0301 152.592 19.6735 151.524 19.6735Z" fill="#1E5188"/>
<path d="M167.723 18.5445C168.345 17.5343 169.142 16.7321 170.114 16.1378C171.105 15.5436 172.174 15.2465 173.32 15.2465V20.6837H171.892C170.57 20.6837 169.54 20.9709 168.802 21.5454C168.083 22.1198 167.723 23.0904 167.723 24.4571V32.004H162.739V15.4247H167.723V18.5445Z" fill="#1E5188"/>
<path d="M181.586 15.2167C182.83 15.2167 183.899 15.504 184.793 16.0784C185.687 16.6528 186.347 17.4352 186.775 18.4256V15.4247H191.73V32.004H186.775V29.0031C186.347 29.9935 185.687 30.7759 184.793 31.3503C183.899 31.9247 182.83 32.2119 181.586 32.2119C180.245 32.2119 179.04 31.8752 177.972 31.2017C176.922 30.5085 176.087 29.5181 175.465 28.2306C174.862 26.943 174.561 25.4376 174.561 23.7143C174.561 21.9712 174.862 20.4658 175.465 19.1981C176.087 17.9106 176.922 16.9301 177.972 16.2567C179.04 15.5634 180.245 15.2167 181.586 15.2167ZM183.189 19.6735C182.121 19.6735 181.256 20.0301 180.595 20.7432C179.954 21.4562 179.633 22.4466 179.633 23.7143C179.633 24.9821 179.954 25.9724 180.595 26.6855C181.256 27.3986 182.121 27.7552 183.189 27.7552C184.239 27.7552 185.094 27.3887 185.755 26.6558C186.435 25.9229 186.775 24.9424 186.775 23.7143C186.775 22.4664 186.435 21.486 185.755 20.7729C185.094 20.04 184.239 19.6735 183.189 19.6735Z" fill="#1E5188"/>
<path d="M194.696 10.76C194.696 9.98746 194.968 9.3536 195.512 8.8584C196.056 8.3434 196.775 8.0859 197.669 8.0859C198.563 8.0859 199.282 8.3434 199.826 8.8584C200.37 9.3536 200.643 9.98746 200.643 10.76C200.643 11.5127 200.37 12.1465 199.826 12.6615C199.282 13.1567 198.563 13.4043 197.669 13.4043C196.775 13.4043 196.056 13.1567 195.512 12.6615C194.968 12.1465 194.696 11.5127 194.696 10.76ZM200.147 15.4247V32.004H195.162V15.4247H200.147Z" fill="#1E5188"/>
<path d="M213.908 15.2465C215.773 15.2465 217.25 15.8803 218.338 17.148C219.446 18.4157 220 20.1588 220 22.3773V32.004H215.015V22.9715C215.015 21.8623 214.724 21.0007 214.141 20.3866C213.577 19.7528 212.819 19.4358 211.867 19.4358C210.857 19.4358 210.05 19.7627 209.448 20.4163C208.865 21.07 208.573 22.001 208.573 23.2092V32.004H203.589V15.4247H208.573V18.4553C209.04 17.4649 209.729 16.6825 210.643 16.1081C211.576 15.5337 212.664 15.2465 213.908 15.2465Z" fill="#1E5188"/>
<path d="M84.1616 54.9455H76.9324L75.5565 58.8199H73.2712L79.3577 42.3714H81.7597L87.8229 58.8199H85.5375L84.1616 54.9455ZM83.5553 53.2579L80.547 44.7959L77.5387 53.2579H83.5553Z" fill="#1E5188"/>
<path d="M95.6376 45.6041C97.27 45.6041 98.6226 46.0478 99.6953 46.9352C100.768 47.8226 101.429 49.011 101.678 50.5006H99.4388C99.2833 49.5657 98.8558 48.8367 98.1562 48.3138C97.4721 47.775 96.6171 47.5056 95.591 47.5056C94.8448 47.5056 94.1607 47.68 93.5388 48.0286C92.9325 48.3772 92.4428 48.916 92.0697 49.6449C91.6965 50.358 91.51 51.2454 91.51 52.3071C91.51 53.3688 91.6965 54.2641 92.0697 54.993C92.4428 55.7061 92.9325 56.237 93.5388 56.5856C94.1607 56.9342 94.8448 57.1085 95.591 57.1085C96.6171 57.1085 97.4721 56.8391 98.1562 56.3004C98.8558 55.7616 99.2833 55.0247 99.4388 54.0898H101.678C101.429 55.5952 100.768 56.7916 99.6953 57.679C98.6226 58.5505 97.27 58.9863 95.6376 58.9863C94.4094 58.9863 93.3212 58.7169 92.3728 58.1782C91.4245 57.6394 90.6782 56.8708 90.1341 55.8725C89.6055 54.8583 89.3412 53.6699 89.3412 52.3071C89.3412 50.9443 89.6055 49.7558 90.1341 48.7417C90.6782 47.7275 91.4245 46.951 92.3728 46.4122C93.3212 45.8735 94.4094 45.6041 95.6376 45.6041Z" fill="#1E5188"/>
<path d="M109.702 45.6041C110.946 45.6041 111.995 45.921 112.85 46.5549C113.721 47.1887 114.327 48.0365 114.669 49.0982V45.7705H116.791V58.8199H114.669V55.4922C114.327 56.5539 113.721 57.4017 112.85 58.0355C111.995 58.6694 110.946 58.9863 109.702 58.9863C108.567 58.9863 107.556 58.7169 106.67 58.1782C105.784 57.6394 105.084 56.8708 104.571 55.8725C104.074 54.8583 103.825 53.6699 103.825 52.3071C103.825 50.9443 104.074 49.7558 104.571 48.7417C105.084 47.7275 105.784 46.951 106.67 46.4122C107.556 45.8735 108.567 45.6041 109.702 45.6041ZM110.308 47.5294C109.002 47.5294 107.953 47.9573 107.16 48.813C106.383 49.6528 105.994 50.8175 105.994 52.3071C105.994 53.7966 106.383 54.9693 107.16 55.825C107.953 56.6648 109.002 57.0848 110.308 57.0848C111.148 57.0848 111.894 56.8867 112.547 56.4905C113.215 56.0944 113.736 55.5397 114.109 54.8266C114.482 54.0977 114.669 53.2579 114.669 52.3071C114.669 51.3563 114.482 50.5164 114.109 49.7875C113.736 49.0586 113.215 48.504 112.547 48.1236C111.894 47.7275 111.148 47.5294 110.308 47.5294Z" fill="#1E5188"/>
<path d="M125.416 45.6041C126.659 45.6041 127.709 45.921 128.564 46.5549C129.434 47.1887 130.041 48.0365 130.383 49.0982V41.2305H132.505V58.8199H130.383V55.4922C130.041 56.5539 129.434 57.4017 128.564 58.0355C127.709 58.6694 126.659 58.9863 125.416 58.9863C124.281 58.9863 123.27 58.7169 122.384 58.1782C121.498 57.6394 120.798 56.8708 120.285 55.8725C119.788 54.8583 119.539 53.6699 119.539 52.3071C119.539 50.9443 119.788 49.7558 120.285 48.7417C120.798 47.7275 121.498 46.951 122.384 46.4122C123.27 45.8735 124.281 45.6041 125.416 45.6041ZM126.022 47.5294C124.716 47.5294 123.666 47.9573 122.874 48.813C122.096 49.6528 121.708 50.8175 121.708 52.3071C121.708 53.7966 122.096 54.9693 122.874 55.825C123.666 56.6648 124.716 57.0848 126.022 57.0848C126.861 57.0848 127.608 56.8867 128.261 56.4905C128.929 56.0944 129.45 55.5397 129.823 54.8266C130.196 54.0977 130.383 53.2579 130.383 52.3071C130.383 51.3563 130.196 50.5164 129.823 49.7875C129.45 49.0586 128.929 48.504 128.261 48.1236C127.608 47.7275 126.861 47.5294 126.022 47.5294Z" fill="#1E5188"/>
<path d="M147.659 51.5702C147.659 52.0298 147.628 52.4259 147.566 52.7587H137.328C137.375 54.2483 137.787 55.3654 138.564 56.1102C139.357 56.855 140.321 57.2274 141.456 57.2274C142.482 57.2274 143.337 56.9659 144.021 56.443C144.72 55.9042 145.148 55.1911 145.303 54.3037H147.566C147.41 55.207 147.06 56.0151 146.516 56.7282C145.988 57.4413 145.296 57.9959 144.441 58.3921C143.586 58.7882 142.622 58.9863 141.549 58.9863C140.321 58.9863 139.233 58.7169 138.284 58.1782C137.336 57.6394 136.59 56.8708 136.045 55.8725C135.517 54.8583 135.253 53.6699 135.253 52.3071C135.253 50.9443 135.517 49.7558 136.045 48.7417C136.59 47.7275 137.336 46.951 138.284 46.4122C139.233 45.8735 140.321 45.6041 141.549 45.6041C142.793 45.6041 143.873 45.8735 144.79 46.4122C145.723 46.951 146.431 47.672 146.913 48.5753C147.41 49.4785 147.659 50.4768 147.659 51.5702ZM145.513 51.7128C145.56 50.7462 145.405 49.9381 145.047 49.2884C144.689 48.6387 144.2 48.1553 143.578 47.8384C142.956 47.5215 142.28 47.363 141.549 47.363C140.383 47.363 139.404 47.7354 138.611 48.4802C137.818 49.2091 137.39 50.2867 137.328 51.7128H145.513Z" fill="#1E5188"/>
<path d="M166.175 45.5565C167.668 45.5565 168.865 46.0478 169.767 47.0303C170.684 47.9969 171.143 49.3993 171.143 51.2375V58.8199H169.021V51.4276C169.021 50.1441 168.71 49.1616 168.088 48.4802C167.481 47.7988 166.642 47.4581 165.569 47.4581C164.45 47.4581 163.548 47.8384 162.864 48.599C162.196 49.3438 161.861 50.4451 161.861 51.903V58.8199H159.739V51.4276C159.739 50.1441 159.428 49.1616 158.806 48.4802C158.184 47.7988 157.345 47.4581 156.288 47.4581C155.153 47.4581 154.243 47.8384 153.559 48.599C152.891 49.3438 152.557 50.4451 152.557 51.903V58.8199H150.434V45.7705H152.557V48.7417C152.867 47.7116 153.419 46.9272 154.212 46.3885C155.021 45.8339 155.946 45.5565 156.987 45.5565C158.076 45.5565 159.016 45.8418 159.809 46.4122C160.618 46.9669 161.193 47.7909 161.535 48.8843C161.892 47.8226 162.491 47.0065 163.33 46.436C164.17 45.8497 165.118 45.5565 166.175 45.5565Z" fill="#1E5188"/>
<path d="M175.324 45.7705L179.475 56.0389L183.323 45.7705H185.678L178.076 65H175.674L178.332 58.606L172.945 45.7705H175.324Z" fill="#1E5188"/>
</svg>
