<svg width="56" height="56" viewBox="0 0 56 56" fill="none" xmlns="http://www.w3.org/2000/svg">
<path d="M34.9417 7.04433L37.1817 3.00299C37.2103 2.95121 37.2285 2.89429 37.2351 2.83548C37.2418 2.77668 37.2368 2.71714 37.2204 2.66026C37.2041 2.60338 37.1767 2.55029 37.1398 2.504C37.1029 2.45771 37.0573 2.41914 37.0055 2.39049C36.9537 2.36184 36.8968 2.34367 36.838 2.33702C36.7792 2.33037 36.7196 2.33537 36.6628 2.35173C36.6059 2.36808 36.5528 2.39548 36.5065 2.43236C36.4602 2.46924 36.4217 2.51488 36.393 2.56666L34.1297 6.64999C32.1976 5.80288 30.1108 5.36551 28.0012 5.36551C25.8915 5.36551 23.8048 5.80288 21.8727 6.64999L19.6093 2.56666C19.5515 2.46146 19.4542 2.38355 19.3389 2.35008C19.2236 2.3166 19.0997 2.3303 18.9945 2.38816C18.8893 2.44602 18.8114 2.54331 18.7779 2.65861C18.7444 2.77391 18.7581 2.89779 18.816 3.00299L21.056 7.04433C18.9247 8.09547 17.124 9.7132 15.8514 11.7201C14.5787 13.727 13.8833 16.0456 13.8413 18.4217H42.161C42.1186 16.0451 41.4225 13.7262 40.149 11.7192C38.8755 9.71228 37.0738 8.09483 34.9417 7.04433ZM21.4667 13.2393C21.2326 13.2393 21.0038 13.1699 20.8092 13.0398C20.6146 12.9097 20.463 12.7248 20.3735 12.5085C20.284 12.2922 20.2607 12.0542 20.3066 11.8247C20.3524 11.5951 20.4653 11.3843 20.631 11.219C20.7967 11.0536 21.0077 10.9412 21.2373 10.8958C21.4669 10.8504 21.7049 10.8742 21.921 10.964C22.1371 11.0539 22.3217 11.2059 22.4514 11.4008C22.5811 11.5956 22.6501 11.8246 22.6497 12.0587C22.6491 12.372 22.5241 12.6723 22.3024 12.8937C22.0806 13.115 21.78 13.2393 21.4667 13.2393ZM34.538 13.2393C34.3039 13.2393 34.0751 13.1699 33.8805 13.0398C33.6859 12.9097 33.5343 12.7248 33.4448 12.5085C33.3554 12.2922 33.3321 12.0542 33.3779 11.8247C33.4237 11.5951 33.5366 11.3843 33.7023 11.219C33.868 11.0536 34.079 10.9412 34.3086 10.8958C34.5383 10.8504 34.7762 10.8742 34.9923 10.964C35.2085 11.0539 35.3931 11.2059 35.5228 11.4008C35.6525 11.5956 35.7215 11.8246 35.721 12.0587C35.7204 12.372 35.5955 12.6723 35.3737 12.8937C35.1519 13.115 34.8514 13.2393 34.538 13.2393ZM13.8367 40.0657C13.8361 40.5162 13.9244 40.9623 14.0966 41.3786C14.2687 41.7949 14.5214 42.1731 14.8401 42.4916C15.1587 42.81 15.5371 43.0624 15.9535 43.2343C16.3699 43.4062 16.8162 43.4942 17.2667 43.4933H19.537V50.4933C19.537 51.3353 19.8715 52.1427 20.4668 52.738C21.0621 53.3334 21.8696 53.6678 22.7115 53.6678C23.5534 53.6678 24.3609 53.3334 24.9562 52.738C25.5515 52.1427 25.886 51.3353 25.886 50.4933V43.4933H30.1187V50.4933C30.1187 51.3349 30.453 52.1421 31.0481 52.7372C31.6432 53.3323 32.4504 53.6667 33.292 53.6667C34.1336 53.6667 34.9408 53.3323 35.5359 52.7372C36.131 52.1421 36.4653 51.3349 36.4653 50.4933V43.4933H38.738C39.1879 43.4936 39.6335 43.4052 40.0492 43.2332C40.4649 43.0612 40.8426 42.8089 41.1608 42.4908C41.4789 42.1726 41.7312 41.7949 41.9032 41.3792C42.0753 40.9635 42.1636 40.5179 42.1633 40.068V19.5417H13.8367V40.0657ZM9.48034 18.9957C8.6387 18.9969 7.83191 19.3319 7.23699 19.9273C6.64208 20.5226 6.30762 21.3297 6.30701 22.1713V35.399C6.30701 35.8157 6.38909 36.2284 6.54856 36.6134C6.70804 36.9984 6.94178 37.3482 7.23645 37.6429C7.53113 37.9376 7.88095 38.1713 8.26596 38.3308C8.65096 38.4902 9.06361 38.5723 9.48034 38.5723C9.89707 38.5723 10.3097 38.4902 10.6947 38.3308C11.0797 38.1713 11.4296 37.9376 11.7242 37.6429C12.0189 37.3482 12.2526 36.9984 12.4121 36.6134C12.5716 36.2284 12.6537 35.8157 12.6537 35.399V22.1713C12.6524 21.3301 12.3177 20.5237 11.7229 19.9288C11.128 19.334 10.3216 18.9992 9.48034 18.998V18.9957ZM46.515 18.9957C45.6734 18.9969 44.8666 19.3319 44.2717 19.9273C43.6767 20.5226 43.3423 21.3297 43.3417 22.1713V35.399C43.3417 35.8157 43.4238 36.2284 43.5832 36.6134C43.7427 36.9984 43.9765 37.3482 44.2711 37.6429C44.5658 37.9376 44.9156 38.1713 45.3006 38.3308C45.6856 38.4902 46.0983 38.5723 46.515 38.5723C46.9317 38.5723 47.3444 38.4902 47.7294 38.3308C48.1144 38.1713 48.4642 37.9376 48.7589 37.6429C49.0536 37.3482 49.2873 36.9984 49.4468 36.6134C49.6063 36.2284 49.6883 35.8157 49.6883 35.399V22.1713C49.6871 21.3301 49.3524 20.5237 48.7575 19.9288C48.1627 19.334 47.3562 18.9992 46.515 18.998V18.9957Z" fill="#F8F8F8"/>
</svg>
