<svg xmlns="http://www.w3.org/2000/svg" width="48" height="48" fill="none" stroke="#f8f8f8" stroke-width="4.667" stroke-linejoin="round" xmlns:v="https://vecta.io/nano"><path d="M41.5 3h-35A3.5 3.5 0 0 0 3 6.5v35A3.5 3.5 0 0 0 6.5 45h35a3.5 3.5 0 0 0 3.5-3.5v-35A3.5 3.5 0 0 0 41.5 3z"/><path d="M17 17a3.5 3.5 0 0 1 3.5-3.5H24v7h-3.5A3.5 3.5 0 0 1 17 17zm0 7a3.5 3.5 0 0 1 3.5-3.5H24v7h-3.5A3.5 3.5 0 0 1 17 24zm0 7a3.5 3.5 0 0 1 3.5-3.5H24V31a3.5 3.5 0 0 1-3.5 3.5A3.5 3.5 0 0 1 17 31zm7-17.5h3.5A3.5 3.5 0 0 1 31 17a3.5 3.5 0 0 1-3.5 3.5H24v-7z"/><path d="M24 24a3.5 3.5 0 0 1 3.5-3.5A3.5 3.5 0 0 1 31 24a3.5 3.5 0 0 1-3.5 3.5A3.5 3.5 0 0 1 24 24z"/></svg>