<svg width="56" height="56" viewBox="0 0 56 56" fill="none" xmlns="http://www.w3.org/2000/svg">
<path d="M47.0051 14.2264L30.0049 4.03046C29.3943 3.68234 28.7035 3.49927 28.0006 3.49927C27.2977 3.49927 26.6069 3.68234 25.9963 4.03046L8.99506 14.2253C8.38238 14.6008 7.87689 15.1279 7.52742 15.7557C7.17795 16.3836 6.99631 17.091 7.00006 17.8095V38.1719C6.99638 38.8909 7.17802 39.5987 7.52746 40.227C7.87689 40.8554 8.38234 41.3832 8.99506 41.7594L13.4532 44.4216L13.4783 44.4358C15.7293 45.5875 16.5912 45.5875 17.5897 45.5875C21.1051 45.5875 23.2893 43.3125 23.2893 39.6495V19.9062C23.2913 19.6598 23.1955 19.4225 23.0229 19.2466C22.8502 19.0707 22.6148 18.9704 22.3683 18.9678H19.9205C19.674 18.9704 19.4387 19.0707 19.266 19.2466C19.0934 19.4225 18.9975 19.6598 18.9996 19.9062V39.6495C19.0085 39.9322 18.9442 40.2123 18.8129 40.4628C18.6816 40.7133 18.4879 40.9255 18.2504 41.0791C17.6051 41.4728 16.6677 41.3897 15.6101 40.8439L11.3379 38.2725C11.3215 38.2613 11.3082 38.2463 11.299 38.2288C11.2898 38.2112 11.2852 38.1917 11.2854 38.1719V18.0972C11.2861 18.0741 11.2923 18.0515 11.3035 18.0314C11.3148 18.0112 11.3307 17.994 11.3499 17.9812L27.9574 7.80937C27.9698 7.80321 27.9835 7.8 27.9973 7.8C28.0112 7.8 28.0248 7.80321 28.0372 7.80937L44.6546 17.9812C44.6735 17.995 44.6888 18.0132 44.6993 18.0341C44.7098 18.055 44.7151 18.0782 44.7147 18.1016V38.1719C44.7152 38.1926 44.711 38.2132 44.7024 38.2321C44.6939 38.251 44.6813 38.2678 44.6655 38.2812L28.034 48.1961C28.0056 48.2059 27.9748 48.2059 27.9465 48.1961L23.6994 45.6739C23.5733 45.5915 23.4277 45.5439 23.2773 45.536C23.1269 45.5282 22.977 45.5603 22.843 45.6291L22.8058 45.6509C21.6333 46.3455 21.3183 46.5259 20.2312 46.9219C20.054 46.9864 19.6372 47.1406 19.6012 47.553C19.5651 47.9653 19.961 48.2584 20.3132 48.463L25.9897 51.9487C26.5946 52.311 27.2863 52.5027 27.9913 52.5033H28.0547C28.7422 52.4925 29.4147 52.3013 30.0049 51.9487L47.0051 41.7626C47.6175 41.3853 48.1226 40.8568 48.4719 40.228C48.8213 39.5992 49.0031 38.8912 49.0001 38.1719V17.8095C49.0035 17.0912 48.8217 16.3841 48.4723 15.7564C48.1228 15.1288 47.6175 14.6018 47.0051 14.2264Z" fill="#F8F8F8"/>
<path d="M33.6744 34.7867C29.5958 34.7867 28.7263 33.647 28.4681 31.8073C28.4391 31.5883 28.3323 31.387 28.1673 31.24C28.0023 31.0931 27.79 31.0103 27.5691 31.0067H25.4034C25.1594 31.0119 24.9273 31.1135 24.758 31.2894C24.5887 31.4653 24.4959 31.7011 24.5 31.9452C24.5 33.5398 25.06 38.745 33.6788 38.745C36.3453 38.745 38.5634 38.1216 40.0914 36.9414C41.6194 35.7612 42.4375 34.0441 42.4375 31.9977C42.4375 27.8906 39.7578 26.7662 34.4805 26.0312C29.1156 25.2853 29.1156 24.9058 29.1156 24.0745C29.1156 23.4762 29.1156 22.0752 32.9941 22.0752C35.7536 22.0752 37.2313 22.4241 37.7038 24.2627C37.7456 24.4665 37.8558 24.6499 38.0161 24.7826C38.1764 24.9153 38.3773 24.9892 38.5853 24.9922H40.7586C40.8867 24.9909 41.013 24.9624 41.1292 24.9084C41.2454 24.8545 41.3487 24.7764 41.4324 24.6794C41.5994 24.4843 41.6828 24.2312 41.6642 23.975C41.3831 20.0867 38.5405 18.1147 32.9974 18.1147C27.9595 18.1147 24.9528 20.3842 24.9528 24.185C24.9528 28.3522 28.0689 29.5302 32.7502 30.018C38.2189 30.5834 38.2189 31.4081 38.2189 32.1366C38.2222 33.2719 37.7508 34.7867 33.6744 34.7867Z" fill="#F8F8F8"/>
</svg>
