<svg width="56" height="56" viewBox="0 0 56 56" fill="none" xmlns="http://www.w3.org/2000/svg">
<path d="M28 21H11.6667C10.429 21 9.242 21.4917 8.36683 22.3668C7.49167 23.242 7 24.429 7 25.6667V35C7 36.2377 7.49167 37.4247 8.36683 38.2998C9.242 39.175 10.429 39.6667 11.6667 39.6667H18.6667M28 35H44.3333C45.571 35 46.758 34.5083 47.6332 33.6332C48.5083 32.758 49 31.571 49 30.3333V21C49 19.7623 48.5083 18.5753 47.6332 17.7002C46.758 16.825 45.571 16.3333 44.3333 16.3333H37.3333" stroke="#F8F8F8" stroke-width="4.66667" stroke-linecap="round" stroke-linejoin="round"/>
<path d="M18.6666 21V11.6667C18.6666 10.429 19.1583 9.242 20.0335 8.36683C20.9086 7.49167 22.0956 7 23.3333 7H32.6666C33.9043 7 35.0913 7.49167 35.9665 8.36683C36.8416 9.242 37.3333 10.429 37.3333 11.6667V23.3333C37.3333 24.571 36.8416 25.758 35.9665 26.6332C35.0913 27.5083 33.9043 28 32.6666 28H23.3333C22.0956 28 20.9086 28.4917 20.0335 29.3668C19.1583 30.242 18.6666 31.429 18.6666 32.6667V44.3333C18.6666 45.571 19.1583 46.758 20.0335 47.6332C20.9086 48.5083 22.0956 49 23.3333 49H32.6666C33.9043 49 35.0913 48.5083 35.9665 47.6332C36.8416 46.758 37.3333 45.571 37.3333 44.3333V35M25.6666 14V14.0233M30.3333 42V42.0233" stroke="#F8F8F8" stroke-width="4.66667" stroke-linecap="round" stroke-linejoin="round"/>
</svg>
